<?xml version="1.0" encoding="UTF-8"?>
<svg version="1.1" xmlns="http://www.w3.org/2000/svg" width="1024" height="1024">
<path d="M0 0 C337.92 0 675.84 0 1024 0 C1024 337.92 1024 675.84 1024 1024 C686.08 1024 348.16 1024 0 1024 C0 686.08 0 348.16 0 0 Z " fill="#151D29" transform="translate(0,0)"/>
<path d="M0 0 C142.56 0 285.12 0 432 0 C432 33 432 66 432 100 C379.53 100 327.06 100 273 100 C273 235.96 273 371.92 273 512 C235.38 512 197.76 512 159 512 C159 376.04 159 240.08 159 100 C106.53 100 54.06 100 0 100 C0 67 0 34 0 0 Z " fill="#2C85D0" transform="translate(296,256)"/>
<path d="M0 0 C142.56 0 285.12 0 432 0 C432 33 432 66 432 100 C431.67 100 431.34 100 431 100 C431 67.33 431 34.66 431 1 C399.45859113 1.32652701 399.45859113 1.32652701 367.91723633 1.65820312 C363.84717261 1.69983866 359.77710854 1.74101076 355.70703125 1.78125 C354.6211503 1.79217178 353.53526936 1.80309357 352.41648293 1.81434631 C340.30650902 1.93380298 328.19801711 2.01768914 316.08740234 1.99609375 C314.54367274 1.99362766 314.54367274 1.99362766 312.96875668 1.99111176 C308.14346245 1.98182982 303.31834089 1.96542907 298.49311829 1.93762207 C289.85228712 1.90180493 281.35798166 2.04410901 272.74958801 2.88000488 C270.18305923 2.99201109 268.43370595 2.72040471 266 2 C263.9599812 1.90800976 261.91708563 1.86998259 259.875 1.875 C258.82054687 1.87242187 257.76609375 1.86984375 256.6796875 1.8671875 C254.02773346 1.818471 254.02773346 1.818471 252 3 C251.01 2.67 250.02 2.34 249 2 C246.98485414 1.96963274 246.98485414 1.96963274 244.7734375 2.15625 C243.9189502 2.20982666 243.06446289 2.26340332 242.18408203 2.31860352 C241.25708496 2.37846436 240.33008789 2.4383252 239.375 2.5 C228.79698735 3.09138864 218.37851576 2.76617951 207.8046875 2.26171875 C198.49233205 1.81834531 189.22696713 1.63475815 179.9375 2.5625 C172.8675675 3.19405725 165.90237267 2.7703405 158.82910156 2.41088867 C152.44524795 2.09106787 146.07964556 1.88482098 139.6875 1.875 C138.93509033 1.87056885 138.18268066 1.8661377 137.4074707 1.86157227 C133.57677245 1.80899618 133.57677245 1.80899618 130 3 C126.9210587 3.15789443 124.95847985 2.98615995 122 2 C120.35881365 1.90689052 118.71413655 1.86930856 117.0703125 1.8671875 C116.10996094 1.86589844 115.14960938 1.86460937 114.16015625 1.86328125 C113.15855469 1.86714844 112.15695312 1.87101562 111.125 1.875 C110.13113281 1.87113281 109.13726562 1.86726563 108.11328125 1.86328125 C107.15035156 1.86457031 106.18742187 1.86585938 105.1953125 1.8671875 C103.88071045 1.86887939 103.88071045 1.86887939 102.53955078 1.87060547 C100.00301125 1.93539764 100.00301125 1.93539764 97.57543945 2.5 C94.53660393 3.08996447 91.69302534 3.12966337 88.59765625 3.1328125 C87.37755859 3.13410156 86.15746094 3.13539063 84.90039062 3.13671875 C83.00063477 3.13091797 83.00063477 3.13091797 81.0625 3.125 C79.79986328 3.12886719 78.53722656 3.13273437 77.23632812 3.13671875 C76.01494141 3.13542969 74.79355469 3.13414062 73.53515625 3.1328125 C72.425354 3.13168457 71.31555176 3.13055664 70.17211914 3.12939453 C67.03431743 3.00139985 64.09231155 2.52199615 61 2 C58.83712006 1.96417922 58.83712006 1.96417922 56.78515625 2.15625 C56.02364258 2.20974609 55.26212891 2.26324219 54.47753906 2.31835938 C53.28209473 2.40827148 53.28209473 2.40827148 52.0625 2.5 C44.68023978 2.98623953 37.66857652 2.89008454 30.296875 2.15625 C26.72801974 1.98710994 23.52847027 2.48501232 20 3 C17.12109375 2.84375 17.12109375 2.84375 14.4375 2.5 C10.36077102 1.97931473 7.03976466 2.27190085 3 3 C3.00523682 3.80518066 3.01047363 4.61036133 3.01586914 5.43994141 C3.03317057 8.5003227 3.04557372 11.56067863 3.05493164 14.62109375 C3.06228369 16.56772545 3.07500578 18.51433456 3.08789062 20.4609375 C3.10703205 27.96437673 2.82346556 35.36453224 2.22924805 42.84375 C1.92995336 46.96439087 1.85151355 51.0577989 1.875 55.1875 C1.87113281 55.91001953 1.86726563 56.63253906 1.86328125 57.37695312 C1.86912169 60.5220303 1.99805983 62.99417948 3 66 C3.0941328 67.82493312 3.13071088 69.6531107 3.1328125 71.48046875 C3.13410156 72.56263672 3.13539063 73.64480469 3.13671875 74.75976562 C3.13285156 75.89091797 3.12898438 77.02207031 3.125 78.1875 C3.12886719 79.29931641 3.13273437 80.41113281 3.13671875 81.55664062 C3.13478516 83.18956055 3.13478516 83.18956055 3.1328125 84.85546875 C3.13168457 85.84184326 3.13055664 86.82821777 3.12939453 87.84448242 C2.97498518 91.61003111 2.48349812 95.26227065 2 99 C2.85892853 98.92935333 3.71785706 98.85870667 4.60281372 98.78591919 C19.21938406 97.74898631 33.84636192 97.85272893 48.491117 97.8656745 C52.3039847 97.86823723 56.1168502 97.86585048 59.92971802 97.86428833 C66.31236207 97.86248101 72.69499445 97.86483814 79.07763672 97.86962891 C86.45390459 97.87510154 93.83014495 97.8732815 101.2064122 97.8678025 C107.565138 97.86326912 113.92385551 97.86262094 120.2825824 97.86524117 C124.07018685 97.86679851 127.85777832 97.86701189 131.64538193 97.86370468 C135.85068153 97.86028715 140.0559332 97.86501917 144.26123047 97.87060547 C145.51413879 97.86858124 146.76704712 97.86655701 148.05792236 97.86447144 C149.76898666 97.86870117 149.76898666 97.86870117 151.51461792 97.87301636 C152.50743208 97.87339338 153.50024624 97.87377041 154.52314568 97.87415886 C157 98 157 98 160 99 C162.40814137 104.07142074 162.28397966 109.04341366 162.25878906 114.53198242 C162.26224838 115.47983486 162.2657077 116.4276873 162.26927185 117.40426254 C162.27798256 120.55473539 162.27209029 123.70499313 162.265625 126.85546875 C162.26765556 129.08818121 162.27033405 131.32089316 162.27362061 133.55360413 C162.27901867 139.5307147 162.27010098 145.50772148 162.25714111 151.4848175 C162.25001881 155.17774771 162.24676796 158.87066243 162.24462891 162.56359863 C162.21639397 201.73881925 161.63578554 240.85817664 160 280 C159.67 280 159.34 280 159 280 C159 220.6 159 161.2 159 100 C106.53 100 54.06 100 0 100 C0 67 0 34 0 0 Z " fill="#3B63A8" transform="translate(296,256)"/>
<path d="M0 0 C0.33 0 0.66 0 1 0 C1 32.67 1 65.34 1 99 C-51.14 99 -103.28 99 -157 99 C-157 234.96 -157 370.92 -157 511 C-194.62 511 -232.24 511 -271 511 C-271 434.44 -271 357.88 -271 279 C-270.67 279 -270.34 279 -270 279 C-270 355.23 -270 431.46 -270 510 C-233.04 510 -196.08 510 -158 510 C-158.0721875 492.21738281 -158.144375 474.43476562 -158.21875 456.11328125 C-158.26481802 444.56681436 -158.31080069 433.0203474 -158.35595703 421.47387695 C-158.3587928 420.74917057 -158.36162856 420.02446418 -158.36455026 419.277797 C-159.06889519 239.20648134 -159.06889519 239.20648134 -159.12283063 160.38138157 C-159.12411146 155.27546146 -159.12784551 150.16954713 -159.13256836 145.06362915 C-159.13851345 138.42453987 -159.13878733 131.78546939 -159.13431931 125.14637756 C-159.13333152 122.80976881 -159.13388919 120.47315877 -159.13615799 118.1365509 C-159.13865942 115.0582109 -159.13500427 111.97994559 -159.12939453 108.90161133 C-159.13142128 108.01232594 -159.13344803 107.12304056 -159.13553619 106.20680714 C-159.11444028 100.22888057 -159.11444028 100.22888057 -158 98 C-157.19693955 97.99576806 -156.39387911 97.99153612 -155.5664835 97.98717594 C-136.05501814 97.88401475 -116.54359018 97.77539912 -97.03218937 97.66066074 C-87.59674906 97.60530736 -78.16130498 97.55182195 -68.72583008 97.50268555 C-60.50493941 97.45986955 -52.28407683 97.4135982 -44.0632295 97.36312145 C-39.70759326 97.33649961 -35.35196267 97.31164611 -30.99629402 97.29092598 C-26.90140656 97.27139192 -22.80657265 97.24725804 -18.71173286 97.21950912 C-17.20442168 97.21012151 -15.69709872 97.20245243 -14.18976974 97.19658089 C-12.14069573 97.18834875 -10.09165149 97.17348313 -8.0426178 97.15821838 C-6.89314195 97.15176583 -5.7436661 97.14531328 -4.55935764 97.1386652 C-2.06670849 97.28931399 -2.06670849 97.28931399 -1 96 C-0.91111798 94.06719843 -0.89313722 92.13111132 -0.90234375 90.19628906 C-0.90564697 88.94857727 -0.9089502 87.70086548 -0.91235352 86.41534424 C-0.91647247 85.74121742 -0.92059143 85.06709061 -0.92483521 84.37253571 C-0.93766024 82.23896781 -0.94413541 80.10546284 -0.94897461 77.97186279 C-0.96232692 72.64508908 -0.98590246 67.31837086 -1.01037598 61.99163818 C-1.03387346 56.81214198 -1.05227033 51.63266535 -1.0625 46.453125 C-1.06402069 45.72463852 -1.06554138 44.99615204 -1.06710815 44.24559021 C-1.08695038 29.4806186 -0.64397564 14.75106697 0 0 Z " fill="#3994BB" transform="translate(726,257)"/>
<path d="M0 0 C0.99 0.495 0.99 0.495 2 1 C2.0292427 5.33331896 2.04688017 9.66661221 2.0625 14 C2.07087891 15.22074219 2.07925781 16.44148438 2.08789062 17.69921875 C2.09111328 18.89160156 2.09433594 20.08398438 2.09765625 21.3125 C2.10289307 22.40175781 2.10812988 23.49101562 2.11352539 24.61328125 C1.98430258 28.46828942 1.49761746 32.17544867 1 36 C2.28839279 35.89403 2.28839279 35.89403 3.60281372 35.78591919 C18.21938406 34.74898631 32.84636192 34.85272893 47.491117 34.8656745 C51.3039847 34.86823723 55.1168502 34.86585048 58.92971802 34.86428833 C65.31236207 34.86248101 71.69499445 34.86483814 78.07763672 34.86962891 C85.45390459 34.87510154 92.83014495 34.8732815 100.2064122 34.8678025 C106.565138 34.86326912 112.92385551 34.86262094 119.2825824 34.86524117 C123.07018685 34.86679851 126.85777832 34.86701189 130.64538193 34.86370468 C134.85068153 34.86028715 139.0559332 34.86501917 143.26123047 34.87060547 C144.51413879 34.86858124 145.76704712 34.86655701 147.05792236 34.86447144 C148.76898666 34.86870117 148.76898666 34.86870117 150.51461792 34.87301636 C151.50743208 34.87339338 152.50024624 34.87377041 153.52314568 34.87415886 C156 35 156 35 159 36 C161.40814137 41.07142074 161.28397966 46.04341366 161.25878906 51.53198242 C161.26224838 52.47983486 161.2657077 53.4276873 161.26927185 54.40426254 C161.27798256 57.55473539 161.27209029 60.70499313 161.265625 63.85546875 C161.26765556 66.08818121 161.27033405 68.32089316 161.27362061 70.55360413 C161.27901867 76.5307147 161.27010098 82.50772148 161.25714111 88.4848175 C161.25001881 92.17774771 161.24676796 95.87066243 161.24462891 99.56359863 C161.21639397 138.73881925 160.63578554 177.85817664 159 217 C158.67 217 158.34 217 158 217 C158 157.6 158 98.2 158 37 C105.86 37 53.72 37 0 37 C0 24.79 0 12.58 0 0 Z " fill="#4469B7" transform="translate(297,319)"/>
<path d="M0 0 C22.8009375 -0.0309375 22.8009375 -0.0309375 46.0625 -0.0625 C50.85402588 -0.071604 55.64555176 -0.08070801 60.58227539 -0.09008789 C66.45397949 -0.09460449 66.45397949 -0.09460449 69.20677185 -0.09544373 C71.12063327 -0.09697469 73.03449375 -0.10048215 74.948349 -0.10557556 C77.85498723 -0.11292134 80.76156674 -0.1139051 83.66821289 -0.11352539 C84.51428384 -0.1171235 85.36035479 -0.12072161 86.23206425 -0.12442875 C90.92767916 -0.11624655 95.36832505 0.21729193 100 1 C96.46108408 3.19052492 93.59197977 3.24509905 89.4765625 3.23046875 C87.57390625 3.22756836 87.57390625 3.22756836 85.6328125 3.22460938 C84.64522949 3.21530396 84.64522949 3.21530396 83.63769531 3.20581055 C81.63874318 3.18762503 79.63965961 3.18652679 77.640625 3.18554688 C71.94626335 3.15955841 66.61576815 2.94891946 61 2 C58.83712006 1.96417922 58.83712006 1.96417922 56.78515625 2.15625 C56.02364258 2.20974609 55.26212891 2.26324219 54.47753906 2.31835938 C53.28209473 2.40827148 53.28209473 2.40827148 52.0625 2.5 C44.68023978 2.98623953 37.66857652 2.89008454 30.296875 2.15625 C26.72801974 1.98710994 23.52847027 2.48501232 20 3 C17.12109375 2.84375 17.12109375 2.84375 14.4375 2.5 C10.36077102 1.97931473 7.03976466 2.27190085 3 3 C3.00523682 3.80518066 3.01047363 4.61036133 3.01586914 5.43994141 C3.03317057 8.5003227 3.04557372 11.56067863 3.05493164 14.62109375 C3.06228369 16.56772545 3.07500578 18.51433456 3.08789062 20.4609375 C3.10369924 26.65791263 2.99356023 32.78252665 2.49609375 38.9609375 C2.05157409 44.53053031 1.94265928 50.03545398 1.98326111 55.62142944 C2.03831801 64.41861922 1.75011998 73.20719144 1.5 82 C1.45162297 83.75780701 1.40344484 85.5156195 1.35546875 87.2734375 C1.2392622 91.51569147 1.12039882 95.75786303 1 100 C0.67 100 0.34 100 0 100 C0 67 0 34 0 0 Z " fill="#4343A6" transform="translate(296,256)"/>
<path d="M0 0 C0.69775417 0.00085602 1.39550835 0.00171204 2.11440659 0.00259399 C10.80546125 0.01404315 19.49648372 0.03420388 28.1875 0.0625 C27.8575 0.7225 27.5275 1.3825 27.1875 2.0625 C26.62466309 2.05726318 26.06182617 2.05202637 25.48193359 2.04663086 C15.2386794 1.96417548 5.10602153 1.93959061 -5.09765625 2.94140625 C-7.68253991 3.05670322 -9.34753564 2.71822838 -11.8125 2.0625 C-13.8525188 1.97050976 -15.89541437 1.93248259 -17.9375 1.9375 C-18.99195313 1.93492187 -20.04640625 1.93234375 -21.1328125 1.9296875 C-23.78476654 1.880971 -23.78476654 1.880971 -25.8125 3.0625 C-26.8025 2.7325 -27.7925 2.4025 -28.8125 2.0625 C-30.29257735 2.05828726 -31.77334125 2.11812383 -33.25 2.21875 C-34.13671387 2.27232666 -35.02342773 2.32590332 -35.93701172 2.38110352 C-36.88592285 2.44096436 -37.83483398 2.5008252 -38.8125 2.5625 C-49.22610393 3.14237786 -59.42039903 2.84250758 -69.8125 2.0625 C-69.8125 1.7325 -69.8125 1.4025 -69.8125 1.0625 C-46.54207463 0.18286997 -23.28458601 -0.0287686 0 0 Z " fill="#4066B7" transform="translate(573.8125,255.9375)"/>
</svg>
